<?xml version="1.0" standalone="no"?>
<!DOCTYPE svg PUBLIC "-//W3C//DTD SVG 20010904//EN"
 "http://www.w3.org/TR/2001/REC-SVG-20010904/DTD/svg10.dtd">
<svg version="1.0" xmlns="http://www.w3.org/2000/svg"
 width="640.000000pt" height="640.000000pt" viewBox="0 0 640.000000 640.000000"
 preserveAspectRatio="xMidYMid meet">
<metadata>
Created by potrace 1.14, written by Peter Selinger 2001-2017
</metadata>
<g transform="translate(0.000000,640.000000) scale(0.100000,-0.100000)"
fill="#000000" stroke="none">
<path d="M0 5945 l0 -455 3200 0 3200 0 0 455 0 455 -3200 0 -3200 0 0 -455z"/>
<path d="M0 3238 l0 -2148 3200 0 3200 0 0 2148 0 2147 -3200 0 -3200 0 0
-2147z m1070 -1514 c12 -36 25 -62 29 -57 4 4 15 34 25 66 16 52 19 57 46 57
33 0 35 -6 45 -132 6 -73 5 -78 -13 -78 -20 0 -32 38 -32 108 0 45 -15 40 -29
-10 -34 -121 -51 -126 -82 -28 -13 39 -27 70 -31 70 -4 0 -8 -21 -8 -47 0 -67
-9 -93 -31 -93 -18 0 -19 6 -14 73 11 132 12 137 45 137 26 0 30 -5 50 -66z
m358 39 c28 -70 62 -166 62 -174 0 -18 -39 -8 -45 11 -5 16 -15 20 -55 20 -39
0 -49 -3 -53 -20 -3 -12 -14 -20 -26 -20 -12 0 -21 2 -21 4 0 4 50 135 70 184
14 33 55 30 68 -5z m240 -45 l47 -73 3 73 c3 64 5 72 22 72 19 0 20 -7 20
-106 l0 -105 -27 3 c-21 2 -35 18 -67 70 -23 37 -44 68 -48 68 -5 0 -8 -31 -8
-70 0 -63 -2 -70 -20 -70 -19 0 -20 7 -20 105 l0 105 25 0 c20 0 35 -14 73
-72z m356 47 c14 -13 26 -28 26 -34 0 -17 -34 -17 -52 1 -24 24 -71 23 -92 -1
-25 -28 -17 -79 16 -104 28 -21 43 -19 90 15 14 10 20 10 29 1 17 -17 -14 -50
-59 -62 -26 -8 -44 -6 -73 6 -48 19 -59 37 -59 98 0 38 5 52 29 76 39 39 105
41 145 4z m152 -10 c2 -57 2 -56 47 -53 42 3 42 3 45 46 3 34 7 42 23 42 18 0
19 -8 19 -105 0 -98 -1 -105 -20 -105 -17 0 -20 7 -20 40 l0 40 -51 0 -51 0 4
-40 c3 -36 1 -40 -19 -40 -22 0 -23 2 -23 106 0 104 0 105 23 102 17 -2 22
-10 23 -33z m354 15 c0 -17 -7 -20 -40 -20 -36 0 -40 -2 -40 -25 0 -22 4 -25
35 -25 28 0 35 -4 35 -20 0 -16 -7 -20 -36 -20 -31 0 -35 -3 -32 -22 2 -19 10
-23 38 -24 25 0 36 -5 38 -17 3 -14 -6 -17 -57 -17 l-61 0 0 105 0 105 60 0
c53 0 60 -2 60 -20z m218 -3 c12 -13 19 -27 15 -30 -10 -10 -43 -8 -43 2 0 16
-40 24 -55 11 -21 -17 -8 -36 34 -48 80 -25 94 -89 25 -118 -42 -18 -92 -6
-112 26 -10 17 -10 21 4 27 9 3 24 1 33 -5 27 -20 40 -24 56 -18 30 11 15 37
-32 57 -51 22 -63 33 -63 63 0 56 95 79 138 33z m227 3 c0 -8 -11 -17 -25 -20
-24 -6 -25 -9 -25 -88 0 -78 -1 -82 -22 -82 -22 0 -23 4 -23 85 0 84 0 85 -25
85 -19 0 -25 5 -25 20 0 19 5 21 73 18 55 -2 72 -6 72 -18z m195 0 c0 -17 -7
-20 -41 -20 -36 0 -40 -2 -37 -22 2 -18 11 -24 36 -26 24 -2 32 -8 32 -23 0
-15 -7 -19 -36 -19 -31 0 -35 -3 -32 -22 2 -19 9 -23 41 -23 29 0 37 -4 37
-17 0 -15 -10 -18 -60 -18 l-60 0 0 105 0 105 60 0 c53 0 60 -2 60 -20z m212
7 c9 -7 20 -25 23 -40 6 -20 1 -31 -19 -50 -20 -19 -23 -27 -14 -35 7 -6 21
-24 31 -41 l18 -31 -24 0 c-19 0 -32 11 -52 45 -30 52 -45 51 -45 -6 0 -32 -3
-39 -20 -39 -19 0 -20 7 -20 105 l0 105 53 0 c28 0 60 -6 69 -13z m282 -63
c10 -42 21 -72 25 -67 5 4 16 39 26 76 15 58 20 68 38 65 15 -2 25 -20 42 -78
13 -41 25 -68 28 -60 3 8 13 43 23 78 13 48 21 62 35 62 24 0 24 -5 -4 -115
-23 -88 -24 -90 -54 -93 -31 -3 -32 -1 -49 58 -9 33 -20 58 -23 55 -3 -4 -13
-30 -21 -58 -14 -47 -19 -52 -47 -55 -25 -3 -31 1 -36 20 -5 24 -35 141 -43
171 -4 13 1 17 18 17 22 0 26 -8 42 -76z m480 55 c49 -38 51 -135 4 -170 -51
-39 -129 -27 -164 25 -25 39 -14 113 21 143 35 30 102 31 139 2z m248 4 c24
-21 23 -65 -2 -88 -19 -17 -19 -18 11 -61 l30 -44 -25 0 c-18 0 -31 12 -53 45
-15 25 -31 45 -35 45 -5 0 -8 -20 -8 -45 0 -38 -3 -45 -20 -45 -19 0 -20 7
-20 105 l0 105 52 0 c34 0 58 -6 70 -17z m158 -23 c0 -22 4 -40 10 -40 5 0 24
18 41 40 21 26 40 40 56 40 30 0 29 -4 -12 -53 -19 -22 -35 -45 -35 -50 0 -5
16 -28 35 -51 19 -24 35 -46 35 -50 0 -3 -11 -6 -25 -6 -19 0 -34 12 -57 45
-18 25 -35 45 -40 45 -4 0 -8 -20 -8 -45 0 -38 -3 -45 -20 -45 -19 0 -20 7
-20 105 0 98 1 105 20 105 17 0 20 -7 20 -40z m379 13 c44 -41 47 -115 6 -156
-46 -45 -125 -40 -166 11 -31 40 -23 117 17 149 42 33 104 32 143 -4z m161
-51 c0 -80 9 -102 42 -102 27 0 38 32 38 109 0 64 2 71 20 71 18 0 20 -7 20
-81 0 -44 -4 -89 -10 -99 -21 -38 -103 -46 -134 -11 -12 13 -22 124 -17 184 1
4 10 7 21 7 18 0 20 -7 20 -78z m335 58 c0 -8 -10 -16 -22 -18 -22 -3 -23 -8
-23 -88 0 -83 0 -84 -25 -84 -25 0 -25 1 -25 85 0 84 0 85 -25 85 -19 0 -25 5
-25 20 0 19 5 21 73 18 56 -2 72 -6 72 -18z"/>
<path d="M1376 1706 c-20 -49 -21 -46 14 -46 34 0 35 5 16 51 l-14 33 -16 -38z"/>
<path d="M3302 1728 c2 -17 10 -23 28 -23 18 0 26 6 28 23 3 19 -1 22 -28 22
-27 0 -31 -3 -28 -22z"/>
<path d="M4037 1738 c-26 -20 -32 -70 -10 -95 28 -32 56 -36 86 -12 68 53 -7
158 -76 107z"/>
<path d="M4312 1728 c2 -17 10 -23 28 -23 18 0 26 6 28 23 3 19 -1 22 -28 22
-27 0 -31 -3 -28 -22z"/>
<path d="M4817 1738 c-9 -7 -20 -27 -23 -45 -5 -26 -1 -37 20 -58 45 -45 106
-16 106 50 0 54 -60 85 -103 53z"/>
<path d="M33 1003 c20 -2 54 -2 75 0 20 2 3 4 -38 4 -41 0 -58 -2 -37 -4z"/>
<path d="M6297 1003 c18 -2 50 -2 70 0 21 2 7 4 -32 4 -38 0 -55 -2 -38 -4z"/>
<path d="M0 490 l0 -490 3200 0 3200 0 0 490 0 490 -3200 0 -3200 0 0 -490z"/>
</g>
</svg>
